<svg xmlns="http://www.w3.org/2000/svg" viewBox="0 0 30 30"><defs><style>.cls-1{fill:#4a4a4a;}.cls-2{fill:#fff;}.cls-3{fill:none;}</style></defs><title>icon_insta</title><g id="レイヤー_2" data-name="レイヤー 2"><g id="レイヤー_1-2" data-name="レイヤー 1"><circle class="cls-1" cx="15" cy="15" r="14.41"/><path class="cls-2" d="M17.7,21.5H12.3a3.81,3.81,0,0,1-3.8-3.8V12.3a3.81,3.81,0,0,1,3.8-3.8h5.4a3.81,3.81,0,0,1,3.8,3.8v5.4A3.81,3.81,0,0,1,17.7,21.5ZM12.3,9.71A2.59,2.59,0,0,0,9.71,12.3v5.4a2.59,2.59,0,0,0,2.59,2.59h5.4a2.59,2.59,0,0,0,2.59-2.59V12.3A2.59,2.59,0,0,0,17.7,9.71Z"/><circle class="cls-2" cx="18.47" cy="11.53" r="0.81"/><path class="cls-2" d="M15,18.36A3.36,3.36,0,1,1,18.36,15,3.36,3.36,0,0,1,15,18.36Zm0-5.51A2.15,2.15,0,1,0,17.15,15,2.15,2.15,0,0,0,15,12.85Z"/><rect class="cls-3" width="30" height="30"/></g></g></svg>