<svg xmlns="http://www.w3.org/2000/svg" viewBox="0 0 30 30"><defs><style>.cls-1,.cls-3{fill:#4a4a4a;}.cls-2{fill:#fff;}.cls-3{fill-rule:evenodd;}.cls-4{fill:none;}</style></defs><title>icon_git</title><g id="レイヤー_2" data-name="レイヤー 2"><g id="レイヤー_1-2" data-name="レイヤー 1"><circle class="cls-1" cx="15" cy="15" r="14.41"/><circle class="cls-2" cx="15" cy="14.14" r="8.5"/><path class="cls-3" d="M15,4.72c-4.71,0-8.53,4.74-8.53,9.45a8.53,8.53,0,0,0,5.83,8.09c.43.08.58-.19.58-.41s0-.74,0-1.45C10.5,20.91,10,19.25,10,19.25A2.26,2.26,0,0,0,9.05,18c-.77-.53.06-.52.06-.52a1.79,1.79,0,0,1,1.31.88,1.82,1.82,0,0,0,2.48.71,1.82,1.82,0,0,1,.54-1.14c-1.89-.22-3.89-.95-3.89-4.22a3.3,3.3,0,0,1,.88-2.29,3.07,3.07,0,0,1,.08-2.26s.72-.23,2.35.87a8.08,8.08,0,0,1,4.27,0c1.63-1.1,2.34-.87,2.34-.87a3.06,3.06,0,0,1,.08,2.26,3.29,3.29,0,0,1,.88,2.29c0,3.28-2,4-3.89,4.21a2,2,0,0,1,.58,1.58c0,1.14,0,2.06,0,2.34s.15.49.59.41a8.53,8.53,0,0,0,5.83-8.09C23.53,9.46,19.71,4.72,15,4.72Z"/><rect class="cls-4" width="30" height="30"/></g></g></svg>