<svg xmlns="http://www.w3.org/2000/svg" viewBox="0 0 30 30"><defs><style>.cls-1{fill:#4a4a4a;}.cls-2{fill:#fff;}.cls-3{fill:none;}</style></defs><title>icon_twi</title><g id="レイヤー_2" data-name="レイヤー 2"><g id="レイヤー_1-2" data-name="レイヤー 1"><circle class="cls-1" cx="15" cy="15" r="14.41"/><path class="cls-2" d="M12.47,20.53a7.9,7.9,0,0,0,8-8c0-.12,0-.24,0-.36a5.69,5.69,0,0,0,1.39-1.45,5.58,5.58,0,0,1-1.6.44,2.8,2.8,0,0,0,1.23-1.55,5.6,5.6,0,0,1-1.77.68A2.8,2.8,0,0,0,14.9,12.9,7.93,7.93,0,0,1,9.14,10,2.8,2.8,0,0,0,10,13.71a2.77,2.77,0,0,1-1.27-.35v0A2.8,2.8,0,0,0,11,16.13a2.79,2.79,0,0,1-1.26,0,2.8,2.8,0,0,0,2.61,1.94,5.61,5.61,0,0,1-3.47,1.2,5.69,5.69,0,0,1-.67,0,7.91,7.91,0,0,0,4.28,1.26"/><rect class="cls-3" width="30" height="30"/></g></g></svg>