<?xml version="1.0" encoding="utf-8"?>
<!-- Generator: Adobe Illustrator 20.1.0, SVG Export Plug-In . SVG Version: 6.00 Build 0)  -->
<svg version="1.1" id="レイヤー_1" xmlns="http://www.w3.org/2000/svg" xmlns:xlink="http://www.w3.org/1999/xlink" x="0px"
	 y="0px" viewBox="0 0 556.6 72.5" style="enable-background:new 0 0 556.6 72.5;" xml:space="preserve">
<g id="black">
	<g id="レイヤー_2">
		<g id="レイヤー_1-2">
			<path d="M2.5,22.9c0-0.7,0.6-1.3,1.4-1.4h4.1c0.7,0,1.3,0.6,1.4,1.4v14.7c0,4.7,2.2,7.2,5.9,7.2c4.2,0,6.9-3.5,7.1-4.7V22.9
				c0-1.1,0.6-1.4,1.6-1.4h3.7c0.7,0,1.3,0.6,1.4,1.4v26c0,0.7-0.6,1.3-1.4,1.4h-2c-0.7,0-1.1-0.5-1.3-1.2L23.6,47
				c-2.5,2.6-5.9,4-9.5,4C5.5,51,2.5,44.9,2.5,37.4V22.9z"/>
			<path d="M50.6,20.8c7.1-0.2,13.1,5.5,13.2,12.6c0,0.2,0,0.4,0,0.6c0,0.6-0.1,1.3-0.1,1.9c-0.1,0.7-0.6,1.2-1.3,1.2H42.8
				c0.3,4.3,3.9,7.7,8.3,7.7c2.3-0.1,4.5-0.8,6.4-2c0.9-0.5,1.4-0.8,1.9-0.1l2,2.7c0.5,0.4,0.6,1.1,0.2,1.6
				c-0.1,0.1-0.2,0.2-0.4,0.3c-3,2.4-6.8,3.7-10.6,3.6c-8.7,0-14.4-6.8-14.4-15.1S42,20.8,50.6,20.8z M57.1,32.8
				c-0.2-3.5-3.1-6.3-6.6-6.4c-3.7-0.1-6.9,2.7-7.3,6.4L57.1,32.8z"/>
			<path d="M80.1,32.1c1.9,0,3.8,0.3,5.7,0.9c0.1-4.5-0.8-6.3-4.4-6.3c-2.7,0.1-5.4,0.5-8,1.3c-0.9,0.2-1.4-0.4-1.6-1.1l-0.6-2.7
				c-0.2-0.7,0.2-1.4,0.8-1.6c0,0,0.1,0,0.1,0c3.2-1.1,6.5-1.7,9.9-1.6c9.2,0,10.1,5.6,10.1,12.8v15.3c0,0.7-0.6,1.3-1.4,1.4h-2
				c-0.7,0-0.9-0.3-1.2-1l-0.7-1.9c-2.3,2.4-5.6,3.7-8.9,3.7c-5.4,0-9.3-3.7-9.3-9.6C68.6,36.1,72.8,32.1,80.1,32.1z M79.2,45.9
				c2.6-0.1,5-1.5,6.5-3.6v-4.6c-1.6-0.8-3.3-1.2-5-1.2c-3.4,0-5.8,1.8-5.8,4.7c-0.2,2.4,1.6,4.4,4,4.6C79,45.9,79.1,45.9,79.2,45.9
				L79.2,45.9z"/>
			<path d="M113.4,20.8c8,0,14.5,6.9,14.5,15S121.5,51,113.4,51s-14.5-6.9-14.5-15.2S105.4,20.8,113.4,20.8z M113.4,44.8
				c4.5,0,8.1-4,8.1-9s-3.6-8.8-8.1-8.8s-8.1,3.9-8.1,8.8S108.9,44.8,113.4,44.8L113.4,44.8z"/>
			<path d="M134.3,5.7c-0.1-2.3,1.7-4.2,4-4.2c0,0,0.1,0,0.1,0c2.3,0,4.2,1.9,4.2,4.2s-1.9,4.2-4.2,4.2C136.1,9.8,134.3,8,134.3,5.7
				C134.3,5.7,134.3,5.7,134.3,5.7z M135.1,22.9c0-0.8,0.6-1.4,1.4-1.4h4.1c0.7,0,1.3,0.6,1.4,1.4v26c0,0.7-0.6,1.3-1.4,1.4h-4.1
				c-0.7,0-1.3-0.6-1.4-1.4L135.1,22.9z"/>
			<path d="M150.5,5.7c-0.1-2.3,1.7-4.2,4-4.2c0,0,0.1,0,0.1,0c2.3,0,4.2,1.9,4.2,4.2s-1.9,4.2-4.2,4.2C152.3,9.8,150.5,8,150.5,5.7
				C150.5,5.7,150.5,5.7,150.5,5.7z M151.3,22.9c0-0.7,0.6-1.3,1.4-1.4h4.1c0.7,0,1.3,0.6,1.4,1.4v26c0,0.7-0.6,1.3-1.4,1.4h-4.1
				c-0.7,0-1.3-0.6-1.4-1.4V22.9z"/>
			<path d="M166.6,5.7c-0.1-2.3,1.7-4.2,4-4.2c0,0,0.1,0,0.1,0c2.3,0,4.2,1.9,4.2,4.2s-1.9,4.2-4.2,4.2C168.4,9.8,166.6,8,166.6,5.7
				C166.6,5.7,166.6,5.7,166.6,5.7z M167.4,22.9c0-0.7,0.6-1.3,1.4-1.4h4.1c0.7,0,1.3,0.6,1.4,1.4v26c0,0.7-0.6,1.3-1.4,1.4h-4.1
				c-0.7,0-1.3-0.6-1.4-1.4V22.9z"/>
			<path d="M190.8,12.4l-5.7,2.7c-0.5,0.3-1.2,0.2-1.5-0.3c0,0-0.1-0.1-0.1-0.2l-0.9-2.5c-0.2-0.5-0.1-1,0.2-1.4L193,1.5h3.5
				c0.7,0,1.3,0.6,1.3,1.4v46.1c0,0.7-0.6,1.3-1.3,1.4h-4.4c-0.8,0-1.4-0.6-1.4-1.4l0,0L190.8,12.4z"/>
			<path d="M208,42.9l2.8-2.6c0.5-0.5,1.3-0.5,1.8,0c0.1,0.1,0.1,0.1,0.2,0.2c2.5,2.7,6,4.3,9.7,4.5c4.7,0,9-2.9,9-7.8
				c0-4.3-3.7-8.4-11.3-8.4h-4c-0.7,0-1.3-0.6-1.4-1.3c0-0.1,0-0.1,0-0.2v-3.1c0-1.1,0.4-1.5,1.4-1.5h4c6.8,0,10.1-3.5,10.1-7.7
				c0-4.8-3.9-7.8-8.2-7.8c-3.2,0-6.3,1.5-8.3,4c-0.4,0.5-1.2,0.7-1.7,0.3c-0.1,0-0.1-0.1-0.2-0.1l-2.6-2.3
				c-0.5-0.5-0.5-1.3-0.1-1.8c0,0,0,0,0.1-0.1c0,0,5.4-6.3,13.3-6.3c8.3,0,15,5.1,15,13.1c0,5.5-4.2,9.8-7.4,11.3v0.2
				c3.4,1.4,8.7,5.7,8.7,11.9c0,7.8-6.3,13.7-16.2,13.7c-8.9,0-13.1-4.5-14.7-6.4C207.5,44.1,207.5,43.3,208,42.9z"/>
			<path d="M247.8,25.9c0-15.7,6.5-25.1,17.8-25.1c11.3,0,17.7,9.4,17.7,25.1S276.9,51,265.6,51S247.8,41.6,247.8,25.9z M276.1,25.9
				c0-11.8-3.8-18.5-10.5-18.5s-10.6,6.8-10.6,18.5s3.8,18.6,10.6,18.6S276.1,37.8,276.1,25.9L276.1,25.9z"/>
			<path d="M295,41c2.8,0,5,2.2,5,5s-2.2,5-5,5s-5-2.2-5-5S292.2,41,295,41z"/>
			<path d="M314.4,40.4c-1.5-2-2.3-4.5-2.2-7c-0.1-6.8,5.2-12.4,12-12.6c0.1,0,0.2,0,0.3,0h12.6c0.7,0,1.4,0.5,1.4,1.2
				c0,0,0,0.1,0,0.1V24c0,0.5-0.3,1.1-0.8,1.2l-4,1.1c0,0,3.1,2.3,3.1,7.7c0,6.1-4.7,11.7-12.2,11.7c-2.1-0.1-4.2-0.5-6.2-1.2
				c-1.6,0.4-2.8,1.8-3,3.5c0,1.7,1.3,2.9,3.5,2.9h9.8c6.2,0,11.3,3.4,11.3,9.6s-5.7,11.9-15.3,11.9c-10.1,0-14.2-5.2-14.2-9.8
				c0-4.3,3.5-6.3,4.2-6.8v-0.2c-3.2-0.9-5.3-3.9-5.3-7.2C309.3,43,314.4,40.4,314.4,40.4z M324.5,66.6c4.4,0,8.2-2.2,8.2-5.7
				c0-1.2-0.7-4.1-5.4-4.1c-2.1,0-4.2,0-6.3,0.1c-0.4,0.1-4,1.3-4,4.5C317.1,64.5,320.2,66.6,324.5,66.6L324.5,66.6z M330.7,33.5
				c0-3.9-2.4-6.6-6-6.6s-6.3,2.7-6.3,6.6s2.7,6.6,6.3,6.6S330.7,37.4,330.7,33.5L330.7,33.5z"/>
			<path d="M344.4,5.7c-0.1-2.3,1.7-4.2,4-4.2c0,0,0,0,0.1,0c2.3,0,4.2,1.9,4.2,4.2s-1.9,4.2-4.2,4.2C346.2,9.8,344.4,8,344.4,5.7
				C344.4,5.7,344.4,5.7,344.4,5.7z M345.2,22.9c0-0.7,0.6-1.3,1.4-1.4h4.1c0.7,0,1.3,0.6,1.4,1.4v26c0,0.7-0.6,1.3-1.4,1.4h-4.1
				c-0.7,0-1.3-0.6-1.4-1.4V22.9z"/>
			<path d="M363.2,27.5h-3c-0.8,0-1.4-0.6-1.4-1.4v-3.2c0-0.7,0.6-1.3,1.3-1.4c0,0,0.1,0,0.1,0h3v-8c0-0.7,0.6-1.3,1.4-1.4l4.1-0.1
				c0.7,0,1.3,0.6,1.3,1.4v8h7.3c0.7,0,1.3,0.6,1.4,1.3c0,0,0,0.1,0,0.1v3.2c0,0.8-0.6,1.4-1.4,1.4H370v14.3c0,2.4,0.9,2.9,2.3,2.9
				c1.5-0.1,3-0.6,4.4-1.3c0.5-0.3,1.2-0.2,1.5,0.3c0.1,0.1,0.1,0.2,0.2,0.4l1.3,3.2c0.3,0.6,0.1,1.3-0.4,1.6
				c-0.1,0-0.1,0.1-0.2,0.1c-2.6,1.3-5.5,2-8.4,2.2c-5.7,0-7.3-3.5-7.3-8.5L363.2,27.5z"/>
			<path d="M386.2,1.4c0-0.7,0.6-1.3,1.4-1.4h4.2c0.7,0,1.3,0.6,1.4,1.4v22.5c2.5-1.9,5.5-3,8.6-3.1c8.1,0,12,5.8,12,13.6v14.4
				c0,0.7-0.6,1.3-1.4,1.4h-4c-0.8,0-1.4-0.6-1.4-1.4V34.3c0-4.7-2.4-7.2-6.1-7.2c-4.4,0-7.4,3.3-7.8,4.5v17.3
				c0,0.7-0.5,1.3-1.2,1.4c-0.1,0-0.1,0-0.2,0h-4.1c-0.7,0-1.3-0.6-1.4-1.4L386.2,1.4z"/>
			<path d="M422.2,22.9c0-0.7,0.6-1.3,1.4-1.4h4.1c0.7,0,1.3,0.6,1.4,1.4v14.7c0,4.7,2.2,7.2,5.9,7.2c4.2,0,6.9-3.5,7.1-4.7V22.9
				c0-1.1,0.6-1.4,1.6-1.4h3.7c0.7,0,1.3,0.6,1.4,1.4v26c0,0.7-0.6,1.3-1.4,1.4h-2c-0.7,0-1.1-0.5-1.3-1.2l-0.7-2.1
				c-2.5,2.6-5.9,4-9.5,4c-8.6,0-11.6-6.1-11.6-13.6V22.9z"/>
			<path d="M458.1,1.4c0-0.7,0.6-1.3,1.4-1.4h4.2c0.7,0,1.3,0.6,1.4,1.4v21c2.2-1,4.5-1.5,6.9-1.6c8,0,14.1,6.7,14.1,15.1
				S480.2,51,472.6,51c-3.4-0.1-6.7-1.5-9.1-4l-0.6,2c-0.2,0.7-0.6,1.2-1.3,1.2h-2.1c-0.7,0-1.3-0.6-1.4-1.4L458.1,1.4z M471.7,44.8
				c4.6,0,7.6-4.1,7.6-8.9s-3.4-8.8-8.2-8.8c-2.2,0-4.4,0.6-6.2,1.6v11.8C466.2,43.1,468.8,44.8,471.7,44.8z"/>
			<path d="M496.8,41c2.8,0,5,2.2,5,5s-2.2,5-5,5s-5-2.2-5-5S494,41,496.8,41z"/>
			<path d="M510.3,5.7c-0.1-2.3,1.7-4.2,4-4.2c0,0,0.1,0,0.1,0c2.3,0,4.2,1.9,4.2,4.2s-1.9,4.2-4.2,4.2C512.2,9.8,510.3,8,510.3,5.7
				C510.3,5.7,510.3,5.7,510.3,5.7z M511.1,22.9c0-0.7,0.6-1.3,1.4-1.4h4.1c0.7,0,1.3,0.6,1.4,1.4v26c0,0.7-0.6,1.3-1.4,1.4h-4.1
				c-0.7,0-1.3-0.6-1.4-1.4V22.9z"/>
			<path d="M539.6,20.8c8,0,14.5,6.9,14.5,15S547.7,51,539.6,51s-14.5-6.9-14.5-15.2S531.6,20.8,539.6,20.8z M539.6,44.8
				c4.5,0,8.1-4,8.1-9s-3.6-8.8-8.1-8.8s-8.1,3.9-8.1,8.8S535.1,44.8,539.6,44.8L539.6,44.8z"/>
		</g>
	</g>
</g>
</svg>
