<svg xmlns="http://www.w3.org/2000/svg" viewBox="0 0 556.77 72.51"><defs><style>.cls-1{fill:#31aedd;}.cls-2{fill:#e7483f;}</style></defs><title>title_bureteru_1</title><g id="レイヤー_2" data-name="レイヤー 2"><g id="レイヤー_1-2" data-name="レイヤー 1"><path class="cls-1" d="M5.13,22.9a1.41,1.41,0,0,1,1.36-1.36h4.09A1.41,1.41,0,0,1,12,22.9V37.62c0,4.67,2.23,7.18,5.89,7.18,4.24,0,6.89-3.45,7.11-4.74V22.9c0-1.15.57-1.36,1.58-1.36h3.73a1.41,1.41,0,0,1,1.36,1.36v26a1.41,1.41,0,0,1-1.36,1.36h-2c-.72,0-1.08-.5-1.29-1.15L26.24,47A13,13,0,0,1,16.76,51C8.15,51,5.13,44.87,5.13,37.4Z"/><path class="cls-1" d="M53.23,20.82A12.93,12.93,0,0,1,66.44,34.1,17.49,17.49,0,0,1,66.3,36,1.32,1.32,0,0,1,65,37.26H45.48a8.31,8.31,0,0,0,8.26,7.68,12.24,12.24,0,0,0,6.39-2.08c.86-.5,1.36-.79,1.94-.07l2,2.73a1.11,1.11,0,0,1-.14,1.87A16.49,16.49,0,0,1,53.3,51c-8.69,0-14.43-6.82-14.43-15.08S44.62,20.82,53.23,20.82Zm6.53,11.92a6.79,6.79,0,0,0-6.6-6.39,7.27,7.27,0,0,0-7.32,6.39Z"/><path class="cls-1" d="M82.74,32.09a20.66,20.66,0,0,1,5.67.86c.07-4.52-.79-6.32-4.45-6.32a30.51,30.51,0,0,0-8,1.29c-.86.21-1.36-.36-1.58-1.15l-.57-2.66a1.29,1.29,0,0,1,.93-1.65,29.64,29.64,0,0,1,9.91-1.65c9.19,0,10.05,5.6,10.05,12.78V48.89a1.41,1.41,0,0,1-1.36,1.36h-2c-.65,0-.93-.29-1.22-1l-.72-1.94A12.39,12.39,0,0,1,80.51,51c-5.38,0-9.26-3.66-9.26-9.62C71.25,36.11,75.41,32.09,82.74,32.09Zm-.86,13.78a8.5,8.5,0,0,0,6.46-3.59V37.69a10.81,10.81,0,0,0-5-1.15c-3.45,0-5.81,1.79-5.81,4.74A4.32,4.32,0,0,0,81.87,45.88Z"/><path class="cls-1" d="M116,20.82c8,0,14.5,6.89,14.5,15S124.09,51,116,51s-14.5-6.89-14.5-15.15S108,20.82,116,20.82Zm0,24c4.52,0,8.11-4,8.11-9s-3.59-8.76-8.11-8.76-8.11,3.95-8.11,8.76S111.52,44.8,116,44.8Z"/><path class="cls-1" d="M136.94,5.67A4.12,4.12,0,0,1,141,1.44a4.2,4.2,0,1,1,0,8.4A4.11,4.11,0,0,1,136.94,5.67Zm.79,17.23a1.41,1.41,0,0,1,1.36-1.36h4.09a1.41,1.41,0,0,1,1.36,1.36v26a1.41,1.41,0,0,1-1.36,1.36h-4.09a1.41,1.41,0,0,1-1.36-1.36Z"/><path class="cls-1" d="M153.09,5.67a4.12,4.12,0,0,1,4.09-4.24,4.2,4.2,0,1,1,0,8.4A4.11,4.11,0,0,1,153.09,5.67Zm.79,17.23a1.41,1.41,0,0,1,1.36-1.36h4.09a1.41,1.41,0,0,1,1.36,1.36v26a1.41,1.41,0,0,1-1.36,1.36h-4.09a1.41,1.41,0,0,1-1.36-1.36Z"/><path class="cls-1" d="M169.24,5.67a4.12,4.12,0,0,1,4.09-4.24,4.2,4.2,0,1,1,0,8.4A4.11,4.11,0,0,1,169.24,5.67ZM170,22.9a1.41,1.41,0,0,1,1.36-1.36h4.09a1.41,1.41,0,0,1,1.36,1.36v26a1.41,1.41,0,0,1-1.36,1.36H171.4A1.41,1.41,0,0,1,170,48.89Z"/><path class="cls-1" d="M193.44,12.42l-5.74,2.73a1.09,1.09,0,0,1-1.58-.5l-.86-2.51a1.39,1.39,0,0,1,.22-1.44l10.19-9.26h3.52a1.35,1.35,0,0,1,1.29,1.36V48.89a1.35,1.35,0,0,1-1.29,1.36H194.8a1.36,1.36,0,0,1-1.36-1.36Z"/><path class="cls-1" d="M210.67,42.86l2.8-2.58a1.26,1.26,0,0,1,1.94.14,14.33,14.33,0,0,0,9.76,4.45c4.67,0,9-2.94,9-7.75,0-4.31-3.66-8.4-11.34-8.4h-4a1.33,1.33,0,0,1-1.36-1.51V24.12c0-1.08.43-1.51,1.44-1.51h4c6.75,0,10.12-3.45,10.12-7.68,0-4.81-3.95-7.83-8.18-7.83a11,11,0,0,0-8.33,4,1.22,1.22,0,0,1-1.87.14L212,8.9A1.28,1.28,0,0,1,212,7S217.41.72,225.24.72c8.33,0,15,5.1,15,13.14,0,5.53-4.16,9.76-7.39,11.27v.21c3.37,1.44,8.69,5.74,8.69,11.92,0,7.83-6.32,13.71-16.23,13.71-8.9,0-13.14-4.52-14.72-6.39A1.23,1.23,0,0,1,210.67,42.86Z"/><path class="cls-1" d="M250.44,25.85c0-15.72,6.46-25.13,17.8-25.13S286,10.12,286,25.85,279.51,51,268.24,51,250.44,41.57,250.44,25.85Zm28.29,0c0-11.77-3.8-18.52-10.48-18.52s-10.55,6.75-10.55,18.52,3.8,18.59,10.55,18.59S278.72,37.76,278.72,25.85Z"/><path class="cls-1" d="M297.6,41a5,5,0,1,1-5,5A5,5,0,0,1,297.6,41Z"/><path class="cls-1" d="M317.06,40.35a11.53,11.53,0,0,1-2.22-7,12.3,12.3,0,0,1,12.35-12.56h12.56a1.32,1.32,0,0,1,1.37,1.36V24c0,.5-.29,1.15-.79,1.22l-3.95,1.08s3.09,2.3,3.09,7.68c0,6.1-4.74,11.7-12.2,11.7A21.11,21.11,0,0,1,321,44.51,4,4,0,0,0,318.07,48c0,1.65,1.29,2.94,3.45,2.94h9.76c6.25,0,11.27,3.37,11.27,9.62s-5.74,11.92-15.29,11.92c-10.12,0-14.21-5.17-14.21-9.84,0-4.31,3.52-6.32,4.23-6.75v-.22A7.41,7.41,0,0,1,312,48.53C312,43,317.06,40.35,317.06,40.35Zm10.12,26.28c4.38,0,8.18-2.23,8.18-5.67,0-1.15-.72-4.09-5.38-4.09-2.08,0-4.23,0-6.32.14-.43.14-3.95,1.29-3.95,4.52C319.72,64.47,322.8,66.62,327.18,66.62Zm6.17-33.1c0-3.88-2.44-6.61-6-6.61S321,29.65,321,33.53s2.66,6.6,6.32,6.6S333.36,37.4,333.36,33.53Z"/><path class="cls-1" d="M347.07,5.67a4.12,4.12,0,0,1,4.09-4.24,4.2,4.2,0,1,1,0,8.4A4.11,4.11,0,0,1,347.07,5.67Zm.79,17.23a1.41,1.41,0,0,1,1.36-1.36h4.09a1.41,1.41,0,0,1,1.36,1.36v26a1.41,1.41,0,0,1-1.36,1.36h-4.09a1.41,1.41,0,0,1-1.36-1.36Z"/><path class="cls-1" d="M365.88,27.5h-3a1.36,1.36,0,0,1-1.36-1.36V22.9a1.32,1.32,0,0,1,1.36-1.36h3v-8a1.41,1.41,0,0,1,1.37-1.36l4.09-.07a1.35,1.35,0,0,1,1.29,1.36v8h7.32a1.32,1.32,0,0,1,1.36,1.36v3.23a1.36,1.36,0,0,1-1.36,1.36h-7.32V41.71c0,2.44.93,2.87,2.3,2.87a11.69,11.69,0,0,0,4.38-1.29,1.07,1.07,0,0,1,1.65.65l1.29,3.16a1.19,1.19,0,0,1-.65,1.72A22,22,0,0,1,373.2,51c-5.67,0-7.32-3.45-7.32-8.54Z"/><path class="cls-1" d="M388.85,1.36A1.41,1.41,0,0,1,390.21,0h4.16a1.41,1.41,0,0,1,1.36,1.36V23.91a14.8,14.8,0,0,1,8.62-3.09c8.11,0,12,5.81,12,13.64V48.89A1.41,1.41,0,0,1,415,50.25h-4a1.36,1.36,0,0,1-1.36-1.36V34.32c0-4.67-2.37-7.25-6.1-7.25-4.38,0-7.39,3.3-7.75,4.52v17.3a1.3,1.3,0,0,1-1.44,1.36h-4.09a1.41,1.41,0,0,1-1.36-1.36Z"/><path class="cls-1" d="M424.89,22.9a1.41,1.41,0,0,1,1.37-1.36h4.09a1.41,1.41,0,0,1,1.36,1.36V37.62c0,4.67,2.23,7.18,5.89,7.18,4.23,0,6.89-3.45,7.11-4.74V22.9c0-1.15.57-1.36,1.58-1.36H450a1.41,1.41,0,0,1,1.36,1.36v26A1.41,1.41,0,0,1,450,50.25h-2c-.72,0-1.08-.5-1.29-1.15L446,47A13,13,0,0,1,436.52,51c-8.62,0-11.63-6.1-11.63-13.57Z"/><path class="cls-1" d="M460.71,1.36A1.41,1.41,0,0,1,462.08,0h4.16a1.41,1.41,0,0,1,1.36,1.36v21a17.28,17.28,0,0,1,6.89-1.58c8,0,14.14,6.68,14.14,15.08S482.83,51,475.22,51a12.84,12.84,0,0,1-9.12-4L465.52,49c-.21.72-.65,1.22-1.29,1.22h-2.15a1.41,1.41,0,0,1-1.36-1.36ZM474.35,44.8c4.6,0,7.61-4.09,7.61-8.9s-3.37-8.83-8.19-8.83a12.28,12.28,0,0,0-6.25,1.65V40.49A7.73,7.73,0,0,0,474.35,44.8Z"/><path class="cls-1" d="M499.41,41a5,5,0,1,1-5,5A5,5,0,0,1,499.41,41Z"/><path class="cls-1" d="M513,5.67a4.12,4.12,0,0,1,4.09-4.24,4.2,4.2,0,1,1,0,8.4A4.11,4.11,0,0,1,513,5.67Zm.79,17.23a1.41,1.41,0,0,1,1.36-1.36h4.09a1.41,1.41,0,0,1,1.36,1.36v26a1.41,1.41,0,0,1-1.36,1.36h-4.09a1.41,1.41,0,0,1-1.36-1.36Z"/><path class="cls-1" d="M542.27,20.82c8,0,14.5,6.89,14.5,15S550.31,51,542.27,51s-14.5-6.89-14.5-15.15S534.23,20.82,542.27,20.82Zm0,24c4.52,0,8.11-4,8.11-9s-3.59-8.76-8.11-8.76-8.11,3.95-8.11,8.76S537.74,44.8,542.27,44.8Z"/><path class="cls-2" d="M0,22.9a1.41,1.41,0,0,1,1.36-1.36H5.46A1.41,1.41,0,0,1,6.82,22.9V37.62c0,4.67,2.23,7.18,5.89,7.18,4.24,0,6.89-3.45,7.11-4.74V22.9c0-1.15.57-1.36,1.58-1.36h3.73a1.41,1.41,0,0,1,1.36,1.36v26a1.41,1.41,0,0,1-1.36,1.36h-2c-.72,0-1.08-.5-1.29-1.15L21.11,47A13,13,0,0,1,11.63,51C3,51,0,44.87,0,37.4Z"/><path class="cls-2" d="M48.1,20.82A12.93,12.93,0,0,1,61.31,34.1,17.49,17.49,0,0,1,61.17,36a1.32,1.32,0,0,1-1.29,1.22H40.35a8.31,8.31,0,0,0,8.26,7.68A12.24,12.24,0,0,0,55,42.86c.86-.5,1.36-.79,1.94-.07l2,2.73a1.11,1.11,0,0,1-.14,1.87A16.49,16.49,0,0,1,48.17,51c-8.69,0-14.43-6.82-14.43-15.08S39.49,20.82,48.1,20.82Zm6.53,11.92A6.79,6.79,0,0,0,48,26.35a7.27,7.27,0,0,0-7.32,6.39Z"/><path class="cls-2" d="M77.61,32.09a20.66,20.66,0,0,1,5.67.86c.07-4.52-.79-6.32-4.45-6.32a30.51,30.51,0,0,0-8,1.29c-.86.21-1.36-.36-1.58-1.15l-.57-2.66a1.29,1.29,0,0,1,.93-1.65,29.64,29.64,0,0,1,9.91-1.65c9.19,0,10.05,5.6,10.05,12.78V48.89a1.41,1.41,0,0,1-1.36,1.36h-2c-.65,0-.93-.29-1.22-1l-.72-1.94A12.39,12.39,0,0,1,75.38,51c-5.38,0-9.26-3.66-9.26-9.62C66.12,36.11,70.28,32.09,77.61,32.09Zm-.86,13.78a8.5,8.5,0,0,0,6.46-3.59V37.69a10.81,10.81,0,0,0-5-1.15c-3.45,0-5.81,1.79-5.81,4.74A4.32,4.32,0,0,0,76.74,45.88Z"/><path class="cls-2" d="M110.92,20.82c8,0,14.5,6.89,14.5,15S119,51,110.92,51s-14.5-6.89-14.5-15.15S102.88,20.82,110.92,20.82Zm0,24c4.52,0,8.11-4,8.11-9s-3.59-8.76-8.11-8.76S102.8,31,102.8,35.82,106.39,44.8,110.92,44.8Z"/><path class="cls-2" d="M131.81,5.67a4.12,4.12,0,0,1,4.09-4.24,4.2,4.2,0,1,1,0,8.4A4.11,4.11,0,0,1,131.81,5.67Zm.79,17.23A1.41,1.41,0,0,1,134,21.54h4.09a1.41,1.41,0,0,1,1.36,1.36v26a1.41,1.41,0,0,1-1.36,1.36H134a1.41,1.41,0,0,1-1.36-1.36Z"/><path class="cls-2" d="M148,5.67a4.12,4.12,0,0,1,4.09-4.24,4.2,4.2,0,1,1,0,8.4A4.11,4.11,0,0,1,148,5.67Zm.79,17.23a1.41,1.41,0,0,1,1.36-1.36h4.09a1.41,1.41,0,0,1,1.36,1.36v26a1.41,1.41,0,0,1-1.36,1.36h-4.09a1.41,1.41,0,0,1-1.36-1.36Z"/><path class="cls-2" d="M164.11,5.67a4.12,4.12,0,0,1,4.09-4.24,4.2,4.2,0,1,1,0,8.4A4.11,4.11,0,0,1,164.11,5.67Zm.79,17.23a1.41,1.41,0,0,1,1.36-1.36h4.09a1.41,1.41,0,0,1,1.36,1.36v26a1.41,1.41,0,0,1-1.36,1.36h-4.09a1.41,1.41,0,0,1-1.36-1.36Z"/><path class="cls-2" d="M188.31,12.42l-5.74,2.73a1.09,1.09,0,0,1-1.58-.5l-.86-2.51a1.39,1.39,0,0,1,.22-1.44l10.19-9.26H194a1.35,1.35,0,0,1,1.29,1.36V48.89A1.35,1.35,0,0,1,194,50.25h-4.38a1.36,1.36,0,0,1-1.36-1.36Z"/><path class="cls-2" d="M205.54,42.86l2.8-2.58a1.26,1.26,0,0,1,1.94.14A14.33,14.33,0,0,0,220,44.87c4.67,0,9-2.94,9-7.75,0-4.31-3.66-8.4-11.34-8.4h-4a1.33,1.33,0,0,1-1.36-1.51V24.12c0-1.08.43-1.51,1.44-1.51h4c6.75,0,10.12-3.45,10.12-7.68,0-4.81-3.95-7.83-8.18-7.83a11,11,0,0,0-8.33,4,1.22,1.22,0,0,1-1.87.14L206.83,8.9a1.28,1.28,0,0,1,0-1.87S212.28.72,220.11.72c8.33,0,15,5.1,15,13.14,0,5.53-4.16,9.76-7.39,11.27v.21c3.37,1.44,8.69,5.74,8.69,11.92,0,7.83-6.32,13.71-16.23,13.71-8.9,0-13.14-4.52-14.72-6.39A1.23,1.23,0,0,1,205.54,42.86Z"/><path class="cls-2" d="M245.31,25.85c0-15.72,6.46-25.13,17.8-25.13s17.73,9.41,17.73,25.13S274.38,51,263.11,51,245.31,41.57,245.31,25.85Zm28.29,0c0-11.77-3.8-18.52-10.48-18.52s-10.55,6.75-10.55,18.52,3.8,18.59,10.55,18.59S273.59,37.76,273.59,25.85Z"/><path class="cls-2" d="M292.47,41a5,5,0,1,1-5,5A5,5,0,0,1,292.47,41Z"/><path class="cls-2" d="M311.93,40.35a11.53,11.53,0,0,1-2.22-7,12.3,12.3,0,0,1,12.35-12.56h12.56A1.32,1.32,0,0,1,336,22.18V24c0,.5-.29,1.15-.79,1.22l-3.95,1.08s3.09,2.3,3.09,7.68c0,6.1-4.74,11.7-12.2,11.7a21.11,21.11,0,0,1-6.25-1.15A4,4,0,0,0,312.94,48c0,1.65,1.29,2.94,3.45,2.94h9.76c6.25,0,11.27,3.37,11.27,9.62s-5.74,11.92-15.29,11.92c-10.12,0-14.21-5.17-14.21-9.84,0-4.31,3.52-6.32,4.23-6.75v-.22a7.41,7.41,0,0,1-5.31-7.18C306.83,43,311.93,40.35,311.93,40.35Zm10.12,26.28c4.38,0,8.18-2.23,8.18-5.67,0-1.15-.72-4.09-5.38-4.09-2.08,0-4.23,0-6.32.14-.43.14-3.95,1.29-3.95,4.52C314.59,64.47,317.67,66.62,322.05,66.62Zm6.17-33.1c0-3.88-2.44-6.61-6-6.61s-6.32,2.73-6.32,6.61,2.66,6.6,6.32,6.6S328.23,37.4,328.23,33.53Z"/><path class="cls-2" d="M341.94,5.67A4.12,4.12,0,0,1,346,1.44a4.2,4.2,0,1,1,0,8.4A4.11,4.11,0,0,1,341.94,5.67Zm.79,17.23a1.41,1.41,0,0,1,1.36-1.36h4.09a1.41,1.41,0,0,1,1.36,1.36v26a1.41,1.41,0,0,1-1.36,1.36h-4.09a1.41,1.41,0,0,1-1.36-1.36Z"/><path class="cls-2" d="M360.75,27.5h-3a1.36,1.36,0,0,1-1.36-1.36V22.9a1.32,1.32,0,0,1,1.36-1.36h3v-8a1.41,1.41,0,0,1,1.37-1.36l4.09-.07a1.35,1.35,0,0,1,1.29,1.36v8h7.32a1.32,1.32,0,0,1,1.36,1.36v3.23a1.36,1.36,0,0,1-1.36,1.36h-7.32V41.71c0,2.44.93,2.87,2.3,2.87a11.69,11.69,0,0,0,4.38-1.29,1.07,1.07,0,0,1,1.65.65l1.29,3.16a1.19,1.19,0,0,1-.65,1.72,22,22,0,0,1-8.4,2.15c-5.67,0-7.32-3.45-7.32-8.54Z"/><path class="cls-2" d="M383.72,1.36A1.41,1.41,0,0,1,385.08,0h4.16a1.41,1.41,0,0,1,1.36,1.36V23.91a14.8,14.8,0,0,1,8.62-3.09c8.11,0,12,5.81,12,13.64V48.89a1.41,1.41,0,0,1-1.37,1.36h-4a1.36,1.36,0,0,1-1.36-1.36V34.32c0-4.67-2.37-7.25-6.1-7.25-4.38,0-7.39,3.3-7.75,4.52v17.3a1.3,1.3,0,0,1-1.44,1.36h-4.09a1.41,1.41,0,0,1-1.36-1.36Z"/><path class="cls-2" d="M419.76,22.9a1.41,1.41,0,0,1,1.37-1.36h4.09a1.41,1.41,0,0,1,1.36,1.36V37.62c0,4.67,2.23,7.18,5.89,7.18,4.23,0,6.89-3.45,7.11-4.74V22.9c0-1.15.57-1.36,1.58-1.36h3.73a1.41,1.41,0,0,1,1.36,1.36v26a1.41,1.41,0,0,1-1.36,1.36h-2c-.72,0-1.08-.5-1.29-1.15L440.87,47A13,13,0,0,1,431.39,51c-8.62,0-11.63-6.1-11.63-13.57Z"/><path class="cls-2" d="M455.58,1.36A1.41,1.41,0,0,1,456.95,0h4.16a1.41,1.41,0,0,1,1.36,1.36v21a17.28,17.28,0,0,1,6.89-1.58c8,0,14.14,6.68,14.14,15.08S477.7,51,470.09,51A12.84,12.84,0,0,1,461,47L460.39,49c-.21.72-.65,1.22-1.29,1.22h-2.15a1.41,1.41,0,0,1-1.36-1.36ZM469.22,44.8c4.6,0,7.61-4.09,7.61-8.9s-3.37-8.83-8.19-8.83a12.28,12.28,0,0,0-6.25,1.65V40.49A7.73,7.73,0,0,0,469.22,44.8Z"/><path class="cls-2" d="M494.28,41a5,5,0,1,1-5,5A5,5,0,0,1,494.28,41Z"/><path class="cls-2" d="M507.85,5.67a4.12,4.12,0,0,1,4.09-4.24,4.2,4.2,0,1,1,0,8.4A4.11,4.11,0,0,1,507.85,5.67Zm.79,17.23A1.41,1.41,0,0,1,510,21.54h4.09a1.41,1.41,0,0,1,1.36,1.36v26a1.41,1.41,0,0,1-1.36,1.36H510a1.41,1.41,0,0,1-1.36-1.36Z"/><path class="cls-2" d="M537.14,20.82c8,0,14.5,6.89,14.5,15S545.18,51,537.14,51s-14.5-6.89-14.5-15.15S529.1,20.82,537.14,20.82Zm0,24c4.52,0,8.11-4,8.11-9s-3.59-8.76-8.11-8.76S529,31,529,35.82,532.61,44.8,537.14,44.8Z"/><path d="M2.3,22.9a1.41,1.41,0,0,1,1.36-1.36H7.75A1.41,1.41,0,0,1,9.12,22.9V37.62c0,4.67,2.23,7.18,5.89,7.18,4.24,0,6.89-3.45,7.11-4.74V22.9c0-1.15.57-1.36,1.58-1.36h3.73a1.41,1.41,0,0,1,1.36,1.36v26a1.41,1.41,0,0,1-1.36,1.36h-2c-.72,0-1.08-.5-1.29-1.15L23.4,47A13,13,0,0,1,13.93,51C5.31,51,2.3,44.87,2.3,37.4Z"/><path d="M50.39,20.82A12.93,12.93,0,0,1,63.61,34.1,17.49,17.49,0,0,1,63.46,36a1.32,1.32,0,0,1-1.29,1.22H42.64a8.31,8.31,0,0,0,8.26,7.68,12.24,12.24,0,0,0,6.39-2.08c.86-.5,1.36-.79,1.94-.07l2,2.73a1.11,1.11,0,0,1-.14,1.87A16.49,16.49,0,0,1,50.47,51C41.78,51,36,44.15,36,35.9S41.78,20.82,50.39,20.82Zm6.53,11.92a6.79,6.79,0,0,0-6.6-6.39A7.27,7.27,0,0,0,43,32.74Z"/><path d="M79.9,32.09a20.66,20.66,0,0,1,5.67.86c.07-4.52-.79-6.32-4.45-6.32a30.51,30.51,0,0,0-8,1.29c-.86.21-1.36-.36-1.58-1.15l-.57-2.66a1.29,1.29,0,0,1,.93-1.65,29.64,29.64,0,0,1,9.91-1.65c9.19,0,10.05,5.6,10.05,12.78V48.89a1.41,1.41,0,0,1-1.36,1.36h-2c-.65,0-.93-.29-1.22-1l-.72-1.94A12.39,12.39,0,0,1,77.68,51c-5.38,0-9.26-3.66-9.26-9.62C68.41,36.11,72.58,32.09,79.9,32.09ZM79,45.88a8.5,8.5,0,0,0,6.46-3.59V37.69a10.81,10.81,0,0,0-5-1.15c-3.45,0-5.81,1.79-5.81,4.74A4.32,4.32,0,0,0,79,45.88Z"/><path d="M113.21,20.82c8,0,14.5,6.89,14.5,15S121.25,51,113.21,51s-14.5-6.89-14.5-15.15S105.17,20.82,113.21,20.82Zm0,24c4.52,0,8.11-4,8.11-9s-3.59-8.76-8.11-8.76S105.1,31,105.1,35.82,108.69,44.8,113.21,44.8Z"/><path d="M134.1,5.67a4.12,4.12,0,0,1,4.09-4.24,4.2,4.2,0,1,1,0,8.4A4.11,4.11,0,0,1,134.1,5.67Zm.79,17.23a1.41,1.41,0,0,1,1.36-1.36h4.09a1.41,1.41,0,0,1,1.36,1.36v26a1.41,1.41,0,0,1-1.36,1.36h-4.09a1.41,1.41,0,0,1-1.36-1.36Z"/><path d="M150.26,5.67a4.12,4.12,0,0,1,4.09-4.24,4.2,4.2,0,1,1,0,8.4A4.11,4.11,0,0,1,150.26,5.67ZM151,22.9a1.41,1.41,0,0,1,1.36-1.36h4.09a1.41,1.41,0,0,1,1.36,1.36v26a1.41,1.41,0,0,1-1.36,1.36h-4.09A1.41,1.41,0,0,1,151,48.89Z"/><path d="M166.41,5.67a4.12,4.12,0,0,1,4.09-4.24,4.2,4.2,0,1,1,0,8.4A4.11,4.11,0,0,1,166.41,5.67Zm.79,17.23a1.41,1.41,0,0,1,1.36-1.36h4.09A1.41,1.41,0,0,1,174,22.9v26a1.41,1.41,0,0,1-1.36,1.36h-4.09a1.41,1.41,0,0,1-1.36-1.36Z"/><path d="M190.6,12.42l-5.74,2.73a1.09,1.09,0,0,1-1.58-.5l-.86-2.51a1.39,1.39,0,0,1,.22-1.44l10.19-9.26h3.52a1.35,1.35,0,0,1,1.29,1.36V48.89a1.35,1.35,0,0,1-1.29,1.36H192a1.36,1.36,0,0,1-1.36-1.36Z"/><path d="M207.83,42.86l2.8-2.58a1.26,1.26,0,0,1,1.94.14,14.33,14.33,0,0,0,9.76,4.45c4.67,0,9-2.94,9-7.75,0-4.31-3.66-8.4-11.34-8.4h-4a1.33,1.33,0,0,1-1.36-1.51V24.12c0-1.08.43-1.51,1.44-1.51h4c6.75,0,10.12-3.45,10.12-7.68,0-4.81-3.95-7.83-8.18-7.83a11,11,0,0,0-8.33,4,1.22,1.22,0,0,1-1.87.14L209.12,8.9a1.28,1.28,0,0,1,0-1.87S214.58.72,222.4.72c8.33,0,15,5.1,15,13.14,0,5.53-4.16,9.76-7.39,11.27v.21c3.37,1.44,8.69,5.74,8.69,11.92,0,7.83-6.32,13.71-16.23,13.71-8.9,0-13.14-4.52-14.72-6.39A1.23,1.23,0,0,1,207.83,42.86Z"/><path d="M247.6,25.85c0-15.72,6.46-25.13,17.8-25.13s17.73,9.41,17.73,25.13S276.68,51,265.41,51,247.6,41.57,247.6,25.85Zm28.29,0c0-11.77-3.8-18.52-10.48-18.52s-10.55,6.75-10.55,18.52,3.8,18.59,10.55,18.59S275.89,37.76,275.89,25.85Z"/><path d="M294.77,41a5,5,0,1,1-5,5A5,5,0,0,1,294.77,41Z"/><path d="M314.22,40.35a11.53,11.53,0,0,1-2.22-7,12.3,12.3,0,0,1,12.35-12.56h12.56a1.32,1.32,0,0,1,1.37,1.36V24c0,.5-.29,1.15-.79,1.22l-3.95,1.08s3.09,2.3,3.09,7.68c0,6.1-4.74,11.7-12.2,11.7a21.11,21.11,0,0,1-6.25-1.15A4,4,0,0,0,315.23,48c0,1.65,1.29,2.94,3.45,2.94h9.76c6.25,0,11.27,3.37,11.27,9.62S334,72.51,324.42,72.51c-10.12,0-14.21-5.17-14.21-9.84,0-4.31,3.52-6.32,4.23-6.75v-.22a7.41,7.41,0,0,1-5.31-7.18C309.13,43,314.22,40.35,314.22,40.35Zm10.12,26.28c4.38,0,8.18-2.23,8.18-5.67,0-1.15-.72-4.09-5.38-4.09-2.08,0-4.23,0-6.32.14-.43.14-3.95,1.29-3.95,4.52C316.88,64.47,320,66.62,324.35,66.62Zm6.17-33.1c0-3.88-2.44-6.61-6-6.61s-6.32,2.73-6.32,6.61,2.66,6.6,6.32,6.6S330.52,37.4,330.52,33.53Z"/><path d="M344.23,5.67a4.12,4.12,0,0,1,4.09-4.24,4.2,4.2,0,1,1,0,8.4A4.11,4.11,0,0,1,344.23,5.67ZM345,22.9a1.41,1.41,0,0,1,1.36-1.36h4.09a1.41,1.41,0,0,1,1.36,1.36v26a1.41,1.41,0,0,1-1.36,1.36h-4.09A1.41,1.41,0,0,1,345,48.89Z"/><path d="M363,27.5h-3a1.36,1.36,0,0,1-1.36-1.36V22.9A1.32,1.32,0,0,1,360,21.54h3v-8a1.41,1.41,0,0,1,1.37-1.36l4.09-.07a1.35,1.35,0,0,1,1.29,1.36v8h7.32a1.32,1.32,0,0,1,1.36,1.36v3.23a1.36,1.36,0,0,1-1.36,1.36h-7.32V41.71c0,2.44.93,2.87,2.3,2.87a11.69,11.69,0,0,0,4.38-1.29,1.07,1.07,0,0,1,1.65.65l1.29,3.16a1.19,1.19,0,0,1-.65,1.72,22,22,0,0,1-8.4,2.15c-5.67,0-7.32-3.45-7.32-8.54Z"/><path d="M386,1.36A1.41,1.41,0,0,1,387.38,0h4.16a1.41,1.41,0,0,1,1.36,1.36V23.91a14.8,14.8,0,0,1,8.62-3.09c8.11,0,12,5.81,12,13.64V48.89a1.41,1.41,0,0,1-1.37,1.36h-4a1.36,1.36,0,0,1-1.36-1.36V34.32c0-4.67-2.37-7.25-6.1-7.25-4.38,0-7.39,3.3-7.75,4.52v17.3a1.3,1.3,0,0,1-1.44,1.36h-4.09A1.41,1.41,0,0,1,386,48.89Z"/><path d="M422.05,22.9a1.41,1.41,0,0,1,1.37-1.36h4.09a1.41,1.41,0,0,1,1.36,1.36V37.62c0,4.67,2.23,7.18,5.89,7.18,4.23,0,6.89-3.45,7.11-4.74V22.9c0-1.15.57-1.36,1.58-1.36h3.73a1.41,1.41,0,0,1,1.36,1.36v26a1.41,1.41,0,0,1-1.36,1.36h-2c-.72,0-1.08-.5-1.29-1.15L443.16,47A13,13,0,0,1,433.68,51c-8.62,0-11.63-6.1-11.63-13.57Z"/><path d="M457.88,1.36A1.41,1.41,0,0,1,459.24,0h4.16a1.41,1.41,0,0,1,1.36,1.36v21a17.28,17.28,0,0,1,6.89-1.58c8,0,14.14,6.68,14.14,15.08S480,51,472.38,51a12.84,12.84,0,0,1-9.12-4L462.69,49c-.21.72-.65,1.22-1.29,1.22h-2.15a1.41,1.41,0,0,1-1.36-1.36ZM471.52,44.8c4.6,0,7.61-4.09,7.61-8.9s-3.37-8.83-8.19-8.83a12.28,12.28,0,0,0-6.25,1.65V40.49A7.73,7.73,0,0,0,471.52,44.8Z"/><path d="M496.57,41a5,5,0,1,1-5,5A5,5,0,0,1,496.57,41Z"/><path d="M510.14,5.67a4.12,4.12,0,0,1,4.09-4.24,4.2,4.2,0,1,1,0,8.4A4.11,4.11,0,0,1,510.14,5.67Zm.79,17.23a1.41,1.41,0,0,1,1.36-1.36h4.09a1.41,1.41,0,0,1,1.36,1.36v26a1.41,1.41,0,0,1-1.36,1.36H512.3a1.41,1.41,0,0,1-1.36-1.36Z"/><path d="M539.43,20.82c8,0,14.5,6.89,14.5,15S547.47,51,539.43,51s-14.5-6.89-14.5-15.15S531.39,20.82,539.43,20.82Zm0,24c4.52,0,8.11-4,8.11-9s-3.59-8.76-8.11-8.76-8.11,3.95-8.11,8.76S534.91,44.8,539.43,44.8Z"/></g></g></svg>